custom-analysis
version=1
nRows=15
nColumns=42
inDegrees=no

This file contains tibia displacement and acting force.

Units are S.I. units (seconds, meters, Newtons, ...)
Angles are in degrees.

endheader
time	APT	SIT	knee_angle	aACL_R_force	pACL_R_force	aPCL_R_force	pPCL_R_force	aMCL_R_force	mMCL_R_force	pMCL_R_force	aLCL_R_force	mLCL_R_force	pLCL_R_force	aACL_R_length	pACL_R_length	aPCL_R_length	pPCL_R_length	aMCL_R_length	mMCL_R_length	pMCL_R_length	aLCL_R_length	mLCL_R_length	pLCL_R_length	aACL_R_strain	pACL_R_strain	aPCL_R_strain	pPCL_R_strain	aMCL_R_strain	mMCL_R_strain	pMCL_R_strain	aLCL_R_strain	mLCL_R_strain	pLCL_R_strain	femur_lat_meniscii_force_r	femur_lat_meniscii_torque_r	femur_med_meniscii_force_r	femur_med_meniscii_torque_r	femur_lat_tibia_force_r	femur_lat_tibia_torque_r	femur_med_tibia_force_r	femur_med_tibia_torque_r
      0.00000000	      0.00000000	      0.00000000	      1.66574369	     17.58855542	     35.98624740	      0.00000000	      0.00000000	      0.00000000	      4.34794595	     16.58356773	      1.86146449	      0.00000000	      2.98101398	      0.03250699	      0.02691945	      0.02939526	      0.02968776	      0.05649158	      0.06132051	      0.06358360	      0.05697715	      0.05538222	      0.05352596	      0.04842665	      0.06154694	     -0.05467185	     -0.01329561	     -0.02646049	      0.02553805	      0.04702279	      0.01786360	     -0.01662651	      0.02260599	      0.31245893	      0.05608385	      3.65735789	      0.10209581	      0.00000000	      0.00000000	      0.00000000	      0.00000000
      0.00100000	      0.00000577	      0.00013443	      1.66677053	    -71.16656181	    -59.06914709	      0.00000000	      0.00000000	      0.00000000	   -155.08729056	   -143.64315695	   -191.93296178	      0.00000000	   -194.42749255	      0.03238302	      0.02679496	      0.02929253	      0.02957822	      0.05636906	      0.06119488	      0.06345799	      0.05685529	      0.05525881	      0.05340206	      0.04442835	      0.05663766	     -0.05797562	     -0.01693650	     -0.02857188	      0.02343699	      0.04495433	      0.01568660	     -0.01881769	      0.02023901	     21.01472043	      1.96333051	     72.70969570	      4.62546630	      0.00000000	      0.00000000	      0.00000000	      0.00000000
      0.00229763	      0.00004066	      0.00050387	      1.67630178	   -103.51594259	   -101.37365905	      0.00000000	      0.00000000	      0.00000000	   -188.55750090	   -179.67144871	   -229.59782643	      0.00000000	   -234.57813667	      0.03203013	      0.02643581	      0.02902091	      0.02928555	      0.05604428	      0.06085808	      0.06312065	      0.05653109	      0.05492990	      0.05307117	      0.03304666	      0.04247503	     -0.06671074	     -0.02666373	     -0.03416895	      0.01780431	      0.03939946	      0.00989487	     -0.02465801	      0.01391736	    234.47291296	     18.62863211	    451.91402685	     32.08880018	      0.00000000	      0.00000000	     38.25145106	      0.91647013
      0.00292240	      0.00007034	      0.00066941	      1.68658141	    -81.80336724	    -83.18212054	      0.00000000	      0.00000000	      0.00000000	   -134.28857105	   -126.66646788	   -164.82564770	      0.00000000	   -169.81878145	      0.03186621	      0.02626592	      0.02890492	      0.02915885	      0.05590642	      0.06071259	      0.06297442	      0.05639163	      0.05478801	      0.05292792	      0.02775988	      0.03577566	     -0.07044081	     -0.03087454	     -0.03654464	      0.01537102	      0.03699149	      0.00740351	     -0.02717732	      0.01118050	    303.88438961	     27.75026755	    555.79180606	     44.56915005	      0.00000000	      0.00000000	    907.23228919	     21.05426494
      0.00372433	      0.00013884	      0.00078199	      1.71062297	    -28.45924311	    -32.89670668	      0.00000000	      0.00000000	      0.00000000	    -22.54825473	    -15.83299461	    -39.92575708	      0.00000000	    -43.95441136	      0.03174507	      0.02613162	      0.02883321	      0.02907789	      0.05583367	      0.06062887	      0.06288929	      0.05630624	      0.05470055	      0.05283827	      0.02385277	      0.03047959	     -0.07274688	     -0.03356559	     -0.03779852	      0.01397087	      0.03558962	      0.00587805	     -0.02873033	      0.00946780	    171.46397656	     24.74540882	    365.56249521	     44.62971093	      0.00000000	      0.00000000	   1447.74095046	     32.07865759
      0.00434756	      0.00020975	      0.00081001	      1.73697860	     -9.31144187	    -13.75955396	      0.00000000	      0.00000000	      0.00000000	      6.19144656	     12.52252464	    -12.20059305	      0.00000000	    -16.04707168	      0.03171072	      0.02608488	      0.02881869	      0.02905969	      0.05583674	      0.06062346	      0.06288247	      0.05629085	      0.05468426	      0.05282003	      0.02274512	      0.02863641	     -0.07321403	     -0.03417022	     -0.03774550	      0.01388044	      0.03547732	      0.00560325	     -0.02901963	      0.00911923	    127.08151278	     22.86004206	    279.71001772	     40.94546372	      4.17638824	      0.15647443	   1369.63753139	     29.98347929
      0.00497079	      0.00028274	      0.00082414	      1.76743473	     -1.32988264	     -5.16444251	      0.00000000	      0.00000000	      0.00000000	     10.80772290	     16.76009870	    -12.02674385	      0.00000000	    -16.04924535	      0.03169676	      0.02605921	      0.02881023	      0.02904912	      0.05585130	      0.06063022	      0.06288749	      0.05628297	      0.05467559	      0.05280927	      0.02229476	      0.02762412	     -0.07348590	     -0.03452180	     -0.03749467	      0.01399347	      0.03556011	      0.00546238	     -0.02917343	      0.00891378	    123.49323564	     23.64208979	    247.82800591	     38.21250194	     23.77855258	      0.88895007	   1395.16753461	     30.58587769
      0.00559402	      0.00035318	      0.00083526	      1.80119704	      3.25343975	      0.18574234	      0.00000000	      0.00000000	      0.00000000	      9.59527093	     15.10789654	    -17.85273037	      0.00000000	    -22.19948185	      0.03169262	      0.02604465	      0.02880039	      0.02903811	      0.05586603	      0.06063795	      0.06289312	      0.05627274	      0.05466455	      0.05279601	      0.02216135	      0.02704978	     -0.07380234	     -0.03488765	     -0.03724079	      0.01412271	      0.03565276	      0.00527963	     -0.02936958	      0.00866038	    129.34764285	     24.90214511	    228.56785554	     35.67626446	     47.47207469	      1.75875410	   1439.92559293	     31.77305561
      0.00652759	      0.00045044	      0.00085214	      1.85756454	      7.37967438	      5.36010753	      0.00000000	      0.00000000	      0.00000000	      5.70249186	     10.43055341	    -27.81599792	      0.00000000	    -32.81868433	      0.03169668	      0.02603546	      0.02878094	      0.02901814	      0.05588302	      0.06064581	      0.06289703	      0.05624899	      0.05463935	      0.05276724	      0.02229203	      0.02668760	     -0.07442785	     -0.03555125	     -0.03694803	      0.01425423	      0.03571714	      0.00485539	     -0.02981700	      0.00811078	    142.82178876	     27.12184294	    204.97185041	     31.08028089	     80.26826347	      2.94758027	   1497.50449496	     33.28743645
      0.00769022	      0.00055799	      0.00087607	      1.93793160	      9.57837755	      8.35208797	      0.00000000	      0.00000000	      0.00000000	      0.50646809	      4.11666234	    -39.76377266	      0.00000000	    -45.79887685	      0.03171141	      0.02603670	      0.02875098	      0.02898894	      0.05589559	      0.06064869	      0.06289348	      0.05620598	      0.05459402	      0.05271696	      0.02276725	      0.02673621	     -0.07539133	     -0.03652192	     -0.03673138	      0.01430235	      0.03565871	      0.00408701	     -0.03062192	      0.00715023	    162.03602734	     30.09580912	    185.13676967	     25.73262698	    122.08288963	      4.42565132	   1566.77515762	     35.03885571
      0.00867003	      0.00064050	      0.00090005	      2.01532021	     11.10877712	     10.14141554	      0.00000000	      0.00000000	      0.00000000	     -0.45308981	      2.10606816	    -44.96149558	      0.00000000	    -51.97528370	      0.03172701	      0.02604221	      0.02872295	      0.02896221	      0.05590053	      0.06064612	      0.06288412	      0.05615973	      0.05454530	      0.05266355	      0.02327039	      0.02695384	     -0.07629280	     -0.03741023	     -0.03664625	      0.01425949	      0.03550460	      0.00326082	     -0.03148697	      0.00612973	    176.67799263	     33.02009378	    166.10664408	     21.37715103	    158.99796112	      5.74251071	   1578.43894695	     35.34434901
      0.00948846	      0.00070522	      0.00092118	      2.08717905	     10.59835062	      9.60032273	      0.00000000	      0.00000000	      0.00000000	     -2.93936796	     -1.29371852	    -50.89032888	      0.00000000	    -58.82703179	      0.03174151	      0.02604858	      0.02870061	      0.02894121	      0.05590362	      0.06064306	      0.06287435	      0.05611719	      0.05450031	      0.05261421	      0.02373811	      0.02720505	     -0.07701147	     -0.03810830	     -0.03659288	      0.01420817	      0.03534364	      0.00250090	     -0.03228583	      0.00518723	    193.52238930	     35.93980138	    161.61385017	     18.88611700	    195.71121224	      7.05864606	   1618.88928594	     36.22247907
      0.01030689	      0.00076740	      0.00094492	      2.16589250	     11.09142107	      9.95569975	      0.00000000	      0.00000000	      0.00000000	     -2.17782017	     -1.49700357	    -52.28206014	      0.00000000	    -61.15651357	      0.03175491	      0.02605376	      0.02867885	      0.02892079	      0.05590516	      0.06063825	      0.06286188	      0.05607061	      0.05445088	      0.05256003	      0.02417020	      0.02740922	     -0.07771097	     -0.03878686	     -0.03656639	      0.01412776	      0.03513826	      0.00166869	     -0.03316349	      0.00415198	    204.31542800	     38.20076694	    147.39549335	     15.87112483	    232.83139047	      8.38079831	   1601.70899671	     35.77787713
      0.01112532	      0.00082755	      0.00096931	      2.25166030	     10.07865595	      8.65850501	      0.00000000	      0.00000000	      0.00000000	     -3.66375742	     -3.95315656	    -56.01128707	      0.00000000	    -65.89052275	      0.03176815	      0.02605848	      0.02865987	      0.02890309	      0.05590744	      0.06063387	      0.06284885	      0.05602257	      0.05439960	      0.05250355	      0.02459715	      0.02759535	     -0.07832136	     -0.03937518	     -0.03652720	      0.01405456	      0.03492374	      0.00081049	     -0.03407400	      0.00307308	    220.25953485	     41.05112913	    145.82882256	     13.86708421	    282.60878293	     10.15147546	   1621.56313012	     36.15304462
      0.01194375	      0.00088606	      0.00099599	      2.34458197	     10.16423886	      8.47146535	      0.00000000	      0.00000000	      0.00000000	     -3.35264995	     -4.62554935	      0.00000000	      0.00000000	    -68.14408374	      0.03177937	      0.02606080	      0.02864274	      0.02888700	      0.05590916	      0.06062850	      0.06283384	      0.05597215	      0.05434552	      0.05244383	      0.02495919	      0.02768665	     -0.07887226	     -0.03990972	     -0.03649755	      0.01396476	      0.03467656	     -0.00009019	     -0.03503433	      0.00193199	    230.95306133	     43.46861160	    137.17825102	     11.71456847	    335.19758831	     12.03077454	   1601.16181128	     35.66303505
